%
M48
M72
T01C0.0240
T02C0.0354
T03C0.0400
T04C0.0402
T05C0.0472
T06C0.0512
T07C0.1181
T08C0.1220
T09C0.1260
%
T01
X74886Y42939
X76086Y39089
X76586Y39089
X76486Y38489
X77736Y38989
X76186Y33289
X74986Y26489
X76086Y23089
X76586Y23089
X77086Y23089
X74986Y10289
X76386Y6689
X76186Y6189
X74986Y4089
X78486Y46089
X75486Y52089
T02
X74986Y36889
X74986Y21189
T03
X76786Y24689
X76786Y25689
X76686Y40689
X76686Y41689
X72586Y47389
X72586Y48389
X72586Y49389
X72586Y50589
X72586Y51589
X77086Y8989
X78086Y8989
T04
X75986Y44337
X75986Y45518
X75986Y46699
X75986Y47880
X75986Y49061
X75986Y50242
X74805Y50242
X74805Y49061
X74805Y47880
X74805Y46699
X74805Y45518
X74805Y44337
T05
X68286Y36589
X66286Y36589
X60786Y36589
X58786Y36589
X53286Y36589
X51286Y36589
X45786Y36589
X43786Y36589
X38286Y36589
X36286Y36589
X30786Y36589
X28786Y36589
X23286Y36589
X21286Y36589
X15786Y36589
X13786Y36589
X13786Y20589
X15786Y20589
X21286Y20589
X23286Y20589
X28786Y20589
X30786Y20589
X36286Y20589
X38286Y20589
X43786Y20589
X45786Y20589
X51286Y20589
X53286Y20589
X58786Y20589
X60786Y20589
X66286Y20589
X68286Y20589
X68286Y4589
X66286Y4589
X60786Y4589
X58786Y4589
X53286Y4589
X51286Y4589
X45786Y4589
X43786Y4589
X38286Y4589
X36286Y4589
X30786Y4589
X28786Y4589
X23286Y4589
X21286Y4589
X15786Y4589
X13786Y4589
T06
X7142Y7077
X7142Y8455
X7142Y9833
X7142Y11211
X7142Y12589
X7142Y13967
X7142Y15345
X7142Y16723
X7142Y18101
X7142Y23077
X7142Y24455
X7142Y25833
X7142Y27211
X7142Y28589
X7142Y29967
X7142Y31345
X7142Y32723
X7142Y34101
X7142Y39077
X7142Y40455
X7142Y41833
X7142Y43211
X7142Y44589
X7142Y45967
X7142Y47345
X7142Y48723
X7142Y50101
X13786Y44589
X16149Y45416
X18511Y44589
X21286Y44589
X23649Y45416
X26011Y44589
X28786Y44589
X31149Y45416
X33511Y44589
X36286Y44589
X38649Y45416
X41011Y44589
X43786Y44589
X46149Y45416
X48511Y44589
X51286Y44589
X53649Y45416
X56011Y44589
X58786Y44589
X61149Y45416
X63511Y44589
X66286Y44589
X68649Y45416
X71011Y44589
X71011Y39786
X66286Y39786
X63511Y39786
X58786Y39786
X56011Y39786
X51286Y39786
X48511Y39786
X43786Y39786
X41011Y39786
X36286Y39786
X33511Y39786
X28786Y39786
X26011Y39786
X21286Y39786
X18511Y39786
X13786Y39786
X16149Y29416
X18511Y28589
X21286Y28589
X23649Y29416
X26011Y28589
X28786Y28589
X31149Y29416
X33511Y28589
X36286Y28589
X38649Y29416
X41011Y28589
X43786Y28589
X46149Y29416
X48511Y28589
X51286Y28589
X53649Y29416
X56011Y28589
X58786Y28589
X61149Y29416
X63511Y28589
X66286Y28589
X68649Y29416
X71011Y28589
X71011Y23786
X66286Y23786
X63511Y23786
X58786Y23786
X56011Y23786
X51286Y23786
X48511Y23786
X43786Y23786
X41011Y23786
X36286Y23786
X33511Y23786
X28786Y23786
X26011Y23786
X21286Y23786
X18511Y23786
X13786Y23786
X13786Y28589
X16149Y13416
X18511Y12589
X21286Y12589
X23649Y13416
X26011Y12589
X28786Y12589
X31149Y13416
X33511Y12589
X36286Y12589
X38649Y13416
X41011Y12589
X43786Y12589
X46149Y13416
X48511Y12589
X51286Y12589
X53649Y13416
X56011Y12589
X58786Y12589
X61149Y13416
X63511Y12589
X66286Y12589
X68649Y13416
X71011Y12589
X71011Y7786
X66286Y7786
X63511Y7786
X58786Y7786
X56011Y7786
X51286Y7786
X48511Y7786
X43786Y7786
X41011Y7786
X36286Y7786
X33511Y7786
X28786Y7786
X26011Y7786
X21286Y7786
X18511Y7786
X13786Y7786
X13786Y12589
T07
X77686Y45183
X77686Y49396
T08
X72386Y53992
X55386Y53992
X32386Y53992
X10386Y53992
X10386Y2992
X32386Y2992
X55386Y2992
X72386Y2992
T09
X69786Y2389
X69786Y5189
X77286Y5189
X77286Y2389
X77586Y16189
X77586Y19689
X71586Y19689
X71586Y16189
X71886Y31689
X71886Y35189
X77386Y35189
X77386Y31689
X4486Y30289
X4486Y26789
X4586Y14489
X4586Y10989
X4586Y42789
X4586Y46289
M30
