G75*
G70*
%OFA0B0*%
%FSLAX24Y24*%
%IPPOS*%
%LPD*%
%AMOC8*
5,1,8,0,0,1.08239X$1,22.5*
%
%ADD10C,0.0000*%
D10*
X003386Y001189D02*
X003386Y056189D01*
X079886Y056189D01*
X079886Y001189D01*
X003386Y001189D01*
X009776Y002992D02*
X009778Y003041D01*
X009784Y003090D01*
X009794Y003138D01*
X009807Y003185D01*
X009825Y003231D01*
X009846Y003275D01*
X009870Y003318D01*
X009898Y003358D01*
X009929Y003397D01*
X009963Y003432D01*
X010000Y003465D01*
X010039Y003494D01*
X010081Y003520D01*
X010124Y003543D01*
X010170Y003562D01*
X010216Y003578D01*
X010264Y003590D01*
X010312Y003598D01*
X010361Y003602D01*
X010411Y003602D01*
X010460Y003598D01*
X010508Y003590D01*
X010556Y003578D01*
X010602Y003562D01*
X010648Y003543D01*
X010691Y003520D01*
X010733Y003494D01*
X010772Y003465D01*
X010809Y003432D01*
X010843Y003397D01*
X010874Y003358D01*
X010902Y003318D01*
X010926Y003275D01*
X010947Y003231D01*
X010965Y003185D01*
X010978Y003138D01*
X010988Y003090D01*
X010994Y003041D01*
X010996Y002992D01*
X010994Y002943D01*
X010988Y002894D01*
X010978Y002846D01*
X010965Y002799D01*
X010947Y002753D01*
X010926Y002709D01*
X010902Y002666D01*
X010874Y002626D01*
X010843Y002587D01*
X010809Y002552D01*
X010772Y002519D01*
X010733Y002490D01*
X010691Y002464D01*
X010648Y002441D01*
X010602Y002422D01*
X010556Y002406D01*
X010508Y002394D01*
X010460Y002386D01*
X010411Y002382D01*
X010361Y002382D01*
X010312Y002386D01*
X010264Y002394D01*
X010216Y002406D01*
X010170Y002422D01*
X010124Y002441D01*
X010081Y002464D01*
X010039Y002490D01*
X010000Y002519D01*
X009963Y002552D01*
X009929Y002587D01*
X009898Y002626D01*
X009870Y002666D01*
X009846Y002709D01*
X009825Y002753D01*
X009807Y002799D01*
X009794Y002846D01*
X009784Y002894D01*
X009778Y002943D01*
X009776Y002992D01*
X031776Y002992D02*
X031778Y003041D01*
X031784Y003090D01*
X031794Y003138D01*
X031807Y003185D01*
X031825Y003231D01*
X031846Y003275D01*
X031870Y003318D01*
X031898Y003358D01*
X031929Y003397D01*
X031963Y003432D01*
X032000Y003465D01*
X032039Y003494D01*
X032081Y003520D01*
X032124Y003543D01*
X032170Y003562D01*
X032216Y003578D01*
X032264Y003590D01*
X032312Y003598D01*
X032361Y003602D01*
X032411Y003602D01*
X032460Y003598D01*
X032508Y003590D01*
X032556Y003578D01*
X032602Y003562D01*
X032648Y003543D01*
X032691Y003520D01*
X032733Y003494D01*
X032772Y003465D01*
X032809Y003432D01*
X032843Y003397D01*
X032874Y003358D01*
X032902Y003318D01*
X032926Y003275D01*
X032947Y003231D01*
X032965Y003185D01*
X032978Y003138D01*
X032988Y003090D01*
X032994Y003041D01*
X032996Y002992D01*
X032994Y002943D01*
X032988Y002894D01*
X032978Y002846D01*
X032965Y002799D01*
X032947Y002753D01*
X032926Y002709D01*
X032902Y002666D01*
X032874Y002626D01*
X032843Y002587D01*
X032809Y002552D01*
X032772Y002519D01*
X032733Y002490D01*
X032691Y002464D01*
X032648Y002441D01*
X032602Y002422D01*
X032556Y002406D01*
X032508Y002394D01*
X032460Y002386D01*
X032411Y002382D01*
X032361Y002382D01*
X032312Y002386D01*
X032264Y002394D01*
X032216Y002406D01*
X032170Y002422D01*
X032124Y002441D01*
X032081Y002464D01*
X032039Y002490D01*
X032000Y002519D01*
X031963Y002552D01*
X031929Y002587D01*
X031898Y002626D01*
X031870Y002666D01*
X031846Y002709D01*
X031825Y002753D01*
X031807Y002799D01*
X031794Y002846D01*
X031784Y002894D01*
X031778Y002943D01*
X031776Y002992D01*
X054776Y002992D02*
X054778Y003041D01*
X054784Y003090D01*
X054794Y003138D01*
X054807Y003185D01*
X054825Y003231D01*
X054846Y003275D01*
X054870Y003318D01*
X054898Y003358D01*
X054929Y003397D01*
X054963Y003432D01*
X055000Y003465D01*
X055039Y003494D01*
X055081Y003520D01*
X055124Y003543D01*
X055170Y003562D01*
X055216Y003578D01*
X055264Y003590D01*
X055312Y003598D01*
X055361Y003602D01*
X055411Y003602D01*
X055460Y003598D01*
X055508Y003590D01*
X055556Y003578D01*
X055602Y003562D01*
X055648Y003543D01*
X055691Y003520D01*
X055733Y003494D01*
X055772Y003465D01*
X055809Y003432D01*
X055843Y003397D01*
X055874Y003358D01*
X055902Y003318D01*
X055926Y003275D01*
X055947Y003231D01*
X055965Y003185D01*
X055978Y003138D01*
X055988Y003090D01*
X055994Y003041D01*
X055996Y002992D01*
X055994Y002943D01*
X055988Y002894D01*
X055978Y002846D01*
X055965Y002799D01*
X055947Y002753D01*
X055926Y002709D01*
X055902Y002666D01*
X055874Y002626D01*
X055843Y002587D01*
X055809Y002552D01*
X055772Y002519D01*
X055733Y002490D01*
X055691Y002464D01*
X055648Y002441D01*
X055602Y002422D01*
X055556Y002406D01*
X055508Y002394D01*
X055460Y002386D01*
X055411Y002382D01*
X055361Y002382D01*
X055312Y002386D01*
X055264Y002394D01*
X055216Y002406D01*
X055170Y002422D01*
X055124Y002441D01*
X055081Y002464D01*
X055039Y002490D01*
X055000Y002519D01*
X054963Y002552D01*
X054929Y002587D01*
X054898Y002626D01*
X054870Y002666D01*
X054846Y002709D01*
X054825Y002753D01*
X054807Y002799D01*
X054794Y002846D01*
X054784Y002894D01*
X054778Y002943D01*
X054776Y002992D01*
X069156Y002389D02*
X069158Y002439D01*
X069164Y002489D01*
X069174Y002538D01*
X069188Y002586D01*
X069205Y002633D01*
X069226Y002678D01*
X069251Y002722D01*
X069279Y002763D01*
X069311Y002802D01*
X069345Y002839D01*
X069382Y002873D01*
X069422Y002903D01*
X069464Y002930D01*
X069508Y002954D01*
X069554Y002975D01*
X069601Y002991D01*
X069649Y003004D01*
X069699Y003013D01*
X069748Y003018D01*
X069799Y003019D01*
X069849Y003016D01*
X069898Y003009D01*
X069947Y002998D01*
X069995Y002983D01*
X070041Y002965D01*
X070086Y002943D01*
X070129Y002917D01*
X070170Y002888D01*
X070209Y002856D01*
X070245Y002821D01*
X070277Y002783D01*
X070307Y002743D01*
X070334Y002700D01*
X070357Y002656D01*
X070376Y002610D01*
X070392Y002562D01*
X070404Y002513D01*
X070412Y002464D01*
X070416Y002414D01*
X070416Y002364D01*
X070412Y002314D01*
X070404Y002265D01*
X070392Y002216D01*
X070376Y002168D01*
X070357Y002122D01*
X070334Y002078D01*
X070307Y002035D01*
X070277Y001995D01*
X070245Y001957D01*
X070209Y001922D01*
X070170Y001890D01*
X070129Y001861D01*
X070086Y001835D01*
X070041Y001813D01*
X069995Y001795D01*
X069947Y001780D01*
X069898Y001769D01*
X069849Y001762D01*
X069799Y001759D01*
X069748Y001760D01*
X069699Y001765D01*
X069649Y001774D01*
X069601Y001787D01*
X069554Y001803D01*
X069508Y001824D01*
X069464Y001848D01*
X069422Y001875D01*
X069382Y001905D01*
X069345Y001939D01*
X069311Y001976D01*
X069279Y002015D01*
X069251Y002056D01*
X069226Y002100D01*
X069205Y002145D01*
X069188Y002192D01*
X069174Y002240D01*
X069164Y002289D01*
X069158Y002339D01*
X069156Y002389D01*
X071776Y002992D02*
X071778Y003041D01*
X071784Y003090D01*
X071794Y003138D01*
X071807Y003185D01*
X071825Y003231D01*
X071846Y003275D01*
X071870Y003318D01*
X071898Y003358D01*
X071929Y003397D01*
X071963Y003432D01*
X072000Y003465D01*
X072039Y003494D01*
X072081Y003520D01*
X072124Y003543D01*
X072170Y003562D01*
X072216Y003578D01*
X072264Y003590D01*
X072312Y003598D01*
X072361Y003602D01*
X072411Y003602D01*
X072460Y003598D01*
X072508Y003590D01*
X072556Y003578D01*
X072602Y003562D01*
X072648Y003543D01*
X072691Y003520D01*
X072733Y003494D01*
X072772Y003465D01*
X072809Y003432D01*
X072843Y003397D01*
X072874Y003358D01*
X072902Y003318D01*
X072926Y003275D01*
X072947Y003231D01*
X072965Y003185D01*
X072978Y003138D01*
X072988Y003090D01*
X072994Y003041D01*
X072996Y002992D01*
X072994Y002943D01*
X072988Y002894D01*
X072978Y002846D01*
X072965Y002799D01*
X072947Y002753D01*
X072926Y002709D01*
X072902Y002666D01*
X072874Y002626D01*
X072843Y002587D01*
X072809Y002552D01*
X072772Y002519D01*
X072733Y002490D01*
X072691Y002464D01*
X072648Y002441D01*
X072602Y002422D01*
X072556Y002406D01*
X072508Y002394D01*
X072460Y002386D01*
X072411Y002382D01*
X072361Y002382D01*
X072312Y002386D01*
X072264Y002394D01*
X072216Y002406D01*
X072170Y002422D01*
X072124Y002441D01*
X072081Y002464D01*
X072039Y002490D01*
X072000Y002519D01*
X071963Y002552D01*
X071929Y002587D01*
X071898Y002626D01*
X071870Y002666D01*
X071846Y002709D01*
X071825Y002753D01*
X071807Y002799D01*
X071794Y002846D01*
X071784Y002894D01*
X071778Y002943D01*
X071776Y002992D01*
X069156Y005189D02*
X069158Y005239D01*
X069164Y005289D01*
X069174Y005338D01*
X069188Y005386D01*
X069205Y005433D01*
X069226Y005478D01*
X069251Y005522D01*
X069279Y005563D01*
X069311Y005602D01*
X069345Y005639D01*
X069382Y005673D01*
X069422Y005703D01*
X069464Y005730D01*
X069508Y005754D01*
X069554Y005775D01*
X069601Y005791D01*
X069649Y005804D01*
X069699Y005813D01*
X069748Y005818D01*
X069799Y005819D01*
X069849Y005816D01*
X069898Y005809D01*
X069947Y005798D01*
X069995Y005783D01*
X070041Y005765D01*
X070086Y005743D01*
X070129Y005717D01*
X070170Y005688D01*
X070209Y005656D01*
X070245Y005621D01*
X070277Y005583D01*
X070307Y005543D01*
X070334Y005500D01*
X070357Y005456D01*
X070376Y005410D01*
X070392Y005362D01*
X070404Y005313D01*
X070412Y005264D01*
X070416Y005214D01*
X070416Y005164D01*
X070412Y005114D01*
X070404Y005065D01*
X070392Y005016D01*
X070376Y004968D01*
X070357Y004922D01*
X070334Y004878D01*
X070307Y004835D01*
X070277Y004795D01*
X070245Y004757D01*
X070209Y004722D01*
X070170Y004690D01*
X070129Y004661D01*
X070086Y004635D01*
X070041Y004613D01*
X069995Y004595D01*
X069947Y004580D01*
X069898Y004569D01*
X069849Y004562D01*
X069799Y004559D01*
X069748Y004560D01*
X069699Y004565D01*
X069649Y004574D01*
X069601Y004587D01*
X069554Y004603D01*
X069508Y004624D01*
X069464Y004648D01*
X069422Y004675D01*
X069382Y004705D01*
X069345Y004739D01*
X069311Y004776D01*
X069279Y004815D01*
X069251Y004856D01*
X069226Y004900D01*
X069205Y004945D01*
X069188Y004992D01*
X069174Y005040D01*
X069164Y005089D01*
X069158Y005139D01*
X069156Y005189D01*
X076656Y005189D02*
X076658Y005239D01*
X076664Y005289D01*
X076674Y005338D01*
X076688Y005386D01*
X076705Y005433D01*
X076726Y005478D01*
X076751Y005522D01*
X076779Y005563D01*
X076811Y005602D01*
X076845Y005639D01*
X076882Y005673D01*
X076922Y005703D01*
X076964Y005730D01*
X077008Y005754D01*
X077054Y005775D01*
X077101Y005791D01*
X077149Y005804D01*
X077199Y005813D01*
X077248Y005818D01*
X077299Y005819D01*
X077349Y005816D01*
X077398Y005809D01*
X077447Y005798D01*
X077495Y005783D01*
X077541Y005765D01*
X077586Y005743D01*
X077629Y005717D01*
X077670Y005688D01*
X077709Y005656D01*
X077745Y005621D01*
X077777Y005583D01*
X077807Y005543D01*
X077834Y005500D01*
X077857Y005456D01*
X077876Y005410D01*
X077892Y005362D01*
X077904Y005313D01*
X077912Y005264D01*
X077916Y005214D01*
X077916Y005164D01*
X077912Y005114D01*
X077904Y005065D01*
X077892Y005016D01*
X077876Y004968D01*
X077857Y004922D01*
X077834Y004878D01*
X077807Y004835D01*
X077777Y004795D01*
X077745Y004757D01*
X077709Y004722D01*
X077670Y004690D01*
X077629Y004661D01*
X077586Y004635D01*
X077541Y004613D01*
X077495Y004595D01*
X077447Y004580D01*
X077398Y004569D01*
X077349Y004562D01*
X077299Y004559D01*
X077248Y004560D01*
X077199Y004565D01*
X077149Y004574D01*
X077101Y004587D01*
X077054Y004603D01*
X077008Y004624D01*
X076964Y004648D01*
X076922Y004675D01*
X076882Y004705D01*
X076845Y004739D01*
X076811Y004776D01*
X076779Y004815D01*
X076751Y004856D01*
X076726Y004900D01*
X076705Y004945D01*
X076688Y004992D01*
X076674Y005040D01*
X076664Y005089D01*
X076658Y005139D01*
X076656Y005189D01*
X076656Y002389D02*
X076658Y002439D01*
X076664Y002489D01*
X076674Y002538D01*
X076688Y002586D01*
X076705Y002633D01*
X076726Y002678D01*
X076751Y002722D01*
X076779Y002763D01*
X076811Y002802D01*
X076845Y002839D01*
X076882Y002873D01*
X076922Y002903D01*
X076964Y002930D01*
X077008Y002954D01*
X077054Y002975D01*
X077101Y002991D01*
X077149Y003004D01*
X077199Y003013D01*
X077248Y003018D01*
X077299Y003019D01*
X077349Y003016D01*
X077398Y003009D01*
X077447Y002998D01*
X077495Y002983D01*
X077541Y002965D01*
X077586Y002943D01*
X077629Y002917D01*
X077670Y002888D01*
X077709Y002856D01*
X077745Y002821D01*
X077777Y002783D01*
X077807Y002743D01*
X077834Y002700D01*
X077857Y002656D01*
X077876Y002610D01*
X077892Y002562D01*
X077904Y002513D01*
X077912Y002464D01*
X077916Y002414D01*
X077916Y002364D01*
X077912Y002314D01*
X077904Y002265D01*
X077892Y002216D01*
X077876Y002168D01*
X077857Y002122D01*
X077834Y002078D01*
X077807Y002035D01*
X077777Y001995D01*
X077745Y001957D01*
X077709Y001922D01*
X077670Y001890D01*
X077629Y001861D01*
X077586Y001835D01*
X077541Y001813D01*
X077495Y001795D01*
X077447Y001780D01*
X077398Y001769D01*
X077349Y001762D01*
X077299Y001759D01*
X077248Y001760D01*
X077199Y001765D01*
X077149Y001774D01*
X077101Y001787D01*
X077054Y001803D01*
X077008Y001824D01*
X076964Y001848D01*
X076922Y001875D01*
X076882Y001905D01*
X076845Y001939D01*
X076811Y001976D01*
X076779Y002015D01*
X076751Y002056D01*
X076726Y002100D01*
X076705Y002145D01*
X076688Y002192D01*
X076674Y002240D01*
X076664Y002289D01*
X076658Y002339D01*
X076656Y002389D01*
X076956Y016189D02*
X076958Y016239D01*
X076964Y016289D01*
X076974Y016338D01*
X076988Y016386D01*
X077005Y016433D01*
X077026Y016478D01*
X077051Y016522D01*
X077079Y016563D01*
X077111Y016602D01*
X077145Y016639D01*
X077182Y016673D01*
X077222Y016703D01*
X077264Y016730D01*
X077308Y016754D01*
X077354Y016775D01*
X077401Y016791D01*
X077449Y016804D01*
X077499Y016813D01*
X077548Y016818D01*
X077599Y016819D01*
X077649Y016816D01*
X077698Y016809D01*
X077747Y016798D01*
X077795Y016783D01*
X077841Y016765D01*
X077886Y016743D01*
X077929Y016717D01*
X077970Y016688D01*
X078009Y016656D01*
X078045Y016621D01*
X078077Y016583D01*
X078107Y016543D01*
X078134Y016500D01*
X078157Y016456D01*
X078176Y016410D01*
X078192Y016362D01*
X078204Y016313D01*
X078212Y016264D01*
X078216Y016214D01*
X078216Y016164D01*
X078212Y016114D01*
X078204Y016065D01*
X078192Y016016D01*
X078176Y015968D01*
X078157Y015922D01*
X078134Y015878D01*
X078107Y015835D01*
X078077Y015795D01*
X078045Y015757D01*
X078009Y015722D01*
X077970Y015690D01*
X077929Y015661D01*
X077886Y015635D01*
X077841Y015613D01*
X077795Y015595D01*
X077747Y015580D01*
X077698Y015569D01*
X077649Y015562D01*
X077599Y015559D01*
X077548Y015560D01*
X077499Y015565D01*
X077449Y015574D01*
X077401Y015587D01*
X077354Y015603D01*
X077308Y015624D01*
X077264Y015648D01*
X077222Y015675D01*
X077182Y015705D01*
X077145Y015739D01*
X077111Y015776D01*
X077079Y015815D01*
X077051Y015856D01*
X077026Y015900D01*
X077005Y015945D01*
X076988Y015992D01*
X076974Y016040D01*
X076964Y016089D01*
X076958Y016139D01*
X076956Y016189D01*
X076956Y019689D02*
X076958Y019739D01*
X076964Y019789D01*
X076974Y019838D01*
X076988Y019886D01*
X077005Y019933D01*
X077026Y019978D01*
X077051Y020022D01*
X077079Y020063D01*
X077111Y020102D01*
X077145Y020139D01*
X077182Y020173D01*
X077222Y020203D01*
X077264Y020230D01*
X077308Y020254D01*
X077354Y020275D01*
X077401Y020291D01*
X077449Y020304D01*
X077499Y020313D01*
X077548Y020318D01*
X077599Y020319D01*
X077649Y020316D01*
X077698Y020309D01*
X077747Y020298D01*
X077795Y020283D01*
X077841Y020265D01*
X077886Y020243D01*
X077929Y020217D01*
X077970Y020188D01*
X078009Y020156D01*
X078045Y020121D01*
X078077Y020083D01*
X078107Y020043D01*
X078134Y020000D01*
X078157Y019956D01*
X078176Y019910D01*
X078192Y019862D01*
X078204Y019813D01*
X078212Y019764D01*
X078216Y019714D01*
X078216Y019664D01*
X078212Y019614D01*
X078204Y019565D01*
X078192Y019516D01*
X078176Y019468D01*
X078157Y019422D01*
X078134Y019378D01*
X078107Y019335D01*
X078077Y019295D01*
X078045Y019257D01*
X078009Y019222D01*
X077970Y019190D01*
X077929Y019161D01*
X077886Y019135D01*
X077841Y019113D01*
X077795Y019095D01*
X077747Y019080D01*
X077698Y019069D01*
X077649Y019062D01*
X077599Y019059D01*
X077548Y019060D01*
X077499Y019065D01*
X077449Y019074D01*
X077401Y019087D01*
X077354Y019103D01*
X077308Y019124D01*
X077264Y019148D01*
X077222Y019175D01*
X077182Y019205D01*
X077145Y019239D01*
X077111Y019276D01*
X077079Y019315D01*
X077051Y019356D01*
X077026Y019400D01*
X077005Y019445D01*
X076988Y019492D01*
X076974Y019540D01*
X076964Y019589D01*
X076958Y019639D01*
X076956Y019689D01*
X070956Y019689D02*
X070958Y019739D01*
X070964Y019789D01*
X070974Y019838D01*
X070988Y019886D01*
X071005Y019933D01*
X071026Y019978D01*
X071051Y020022D01*
X071079Y020063D01*
X071111Y020102D01*
X071145Y020139D01*
X071182Y020173D01*
X071222Y020203D01*
X071264Y020230D01*
X071308Y020254D01*
X071354Y020275D01*
X071401Y020291D01*
X071449Y020304D01*
X071499Y020313D01*
X071548Y020318D01*
X071599Y020319D01*
X071649Y020316D01*
X071698Y020309D01*
X071747Y020298D01*
X071795Y020283D01*
X071841Y020265D01*
X071886Y020243D01*
X071929Y020217D01*
X071970Y020188D01*
X072009Y020156D01*
X072045Y020121D01*
X072077Y020083D01*
X072107Y020043D01*
X072134Y020000D01*
X072157Y019956D01*
X072176Y019910D01*
X072192Y019862D01*
X072204Y019813D01*
X072212Y019764D01*
X072216Y019714D01*
X072216Y019664D01*
X072212Y019614D01*
X072204Y019565D01*
X072192Y019516D01*
X072176Y019468D01*
X072157Y019422D01*
X072134Y019378D01*
X072107Y019335D01*
X072077Y019295D01*
X072045Y019257D01*
X072009Y019222D01*
X071970Y019190D01*
X071929Y019161D01*
X071886Y019135D01*
X071841Y019113D01*
X071795Y019095D01*
X071747Y019080D01*
X071698Y019069D01*
X071649Y019062D01*
X071599Y019059D01*
X071548Y019060D01*
X071499Y019065D01*
X071449Y019074D01*
X071401Y019087D01*
X071354Y019103D01*
X071308Y019124D01*
X071264Y019148D01*
X071222Y019175D01*
X071182Y019205D01*
X071145Y019239D01*
X071111Y019276D01*
X071079Y019315D01*
X071051Y019356D01*
X071026Y019400D01*
X071005Y019445D01*
X070988Y019492D01*
X070974Y019540D01*
X070964Y019589D01*
X070958Y019639D01*
X070956Y019689D01*
X070956Y016189D02*
X070958Y016239D01*
X070964Y016289D01*
X070974Y016338D01*
X070988Y016386D01*
X071005Y016433D01*
X071026Y016478D01*
X071051Y016522D01*
X071079Y016563D01*
X071111Y016602D01*
X071145Y016639D01*
X071182Y016673D01*
X071222Y016703D01*
X071264Y016730D01*
X071308Y016754D01*
X071354Y016775D01*
X071401Y016791D01*
X071449Y016804D01*
X071499Y016813D01*
X071548Y016818D01*
X071599Y016819D01*
X071649Y016816D01*
X071698Y016809D01*
X071747Y016798D01*
X071795Y016783D01*
X071841Y016765D01*
X071886Y016743D01*
X071929Y016717D01*
X071970Y016688D01*
X072009Y016656D01*
X072045Y016621D01*
X072077Y016583D01*
X072107Y016543D01*
X072134Y016500D01*
X072157Y016456D01*
X072176Y016410D01*
X072192Y016362D01*
X072204Y016313D01*
X072212Y016264D01*
X072216Y016214D01*
X072216Y016164D01*
X072212Y016114D01*
X072204Y016065D01*
X072192Y016016D01*
X072176Y015968D01*
X072157Y015922D01*
X072134Y015878D01*
X072107Y015835D01*
X072077Y015795D01*
X072045Y015757D01*
X072009Y015722D01*
X071970Y015690D01*
X071929Y015661D01*
X071886Y015635D01*
X071841Y015613D01*
X071795Y015595D01*
X071747Y015580D01*
X071698Y015569D01*
X071649Y015562D01*
X071599Y015559D01*
X071548Y015560D01*
X071499Y015565D01*
X071449Y015574D01*
X071401Y015587D01*
X071354Y015603D01*
X071308Y015624D01*
X071264Y015648D01*
X071222Y015675D01*
X071182Y015705D01*
X071145Y015739D01*
X071111Y015776D01*
X071079Y015815D01*
X071051Y015856D01*
X071026Y015900D01*
X071005Y015945D01*
X070988Y015992D01*
X070974Y016040D01*
X070964Y016089D01*
X070958Y016139D01*
X070956Y016189D01*
X071256Y031689D02*
X071258Y031739D01*
X071264Y031789D01*
X071274Y031838D01*
X071288Y031886D01*
X071305Y031933D01*
X071326Y031978D01*
X071351Y032022D01*
X071379Y032063D01*
X071411Y032102D01*
X071445Y032139D01*
X071482Y032173D01*
X071522Y032203D01*
X071564Y032230D01*
X071608Y032254D01*
X071654Y032275D01*
X071701Y032291D01*
X071749Y032304D01*
X071799Y032313D01*
X071848Y032318D01*
X071899Y032319D01*
X071949Y032316D01*
X071998Y032309D01*
X072047Y032298D01*
X072095Y032283D01*
X072141Y032265D01*
X072186Y032243D01*
X072229Y032217D01*
X072270Y032188D01*
X072309Y032156D01*
X072345Y032121D01*
X072377Y032083D01*
X072407Y032043D01*
X072434Y032000D01*
X072457Y031956D01*
X072476Y031910D01*
X072492Y031862D01*
X072504Y031813D01*
X072512Y031764D01*
X072516Y031714D01*
X072516Y031664D01*
X072512Y031614D01*
X072504Y031565D01*
X072492Y031516D01*
X072476Y031468D01*
X072457Y031422D01*
X072434Y031378D01*
X072407Y031335D01*
X072377Y031295D01*
X072345Y031257D01*
X072309Y031222D01*
X072270Y031190D01*
X072229Y031161D01*
X072186Y031135D01*
X072141Y031113D01*
X072095Y031095D01*
X072047Y031080D01*
X071998Y031069D01*
X071949Y031062D01*
X071899Y031059D01*
X071848Y031060D01*
X071799Y031065D01*
X071749Y031074D01*
X071701Y031087D01*
X071654Y031103D01*
X071608Y031124D01*
X071564Y031148D01*
X071522Y031175D01*
X071482Y031205D01*
X071445Y031239D01*
X071411Y031276D01*
X071379Y031315D01*
X071351Y031356D01*
X071326Y031400D01*
X071305Y031445D01*
X071288Y031492D01*
X071274Y031540D01*
X071264Y031589D01*
X071258Y031639D01*
X071256Y031689D01*
X071256Y035189D02*
X071258Y035239D01*
X071264Y035289D01*
X071274Y035338D01*
X071288Y035386D01*
X071305Y035433D01*
X071326Y035478D01*
X071351Y035522D01*
X071379Y035563D01*
X071411Y035602D01*
X071445Y035639D01*
X071482Y035673D01*
X071522Y035703D01*
X071564Y035730D01*
X071608Y035754D01*
X071654Y035775D01*
X071701Y035791D01*
X071749Y035804D01*
X071799Y035813D01*
X071848Y035818D01*
X071899Y035819D01*
X071949Y035816D01*
X071998Y035809D01*
X072047Y035798D01*
X072095Y035783D01*
X072141Y035765D01*
X072186Y035743D01*
X072229Y035717D01*
X072270Y035688D01*
X072309Y035656D01*
X072345Y035621D01*
X072377Y035583D01*
X072407Y035543D01*
X072434Y035500D01*
X072457Y035456D01*
X072476Y035410D01*
X072492Y035362D01*
X072504Y035313D01*
X072512Y035264D01*
X072516Y035214D01*
X072516Y035164D01*
X072512Y035114D01*
X072504Y035065D01*
X072492Y035016D01*
X072476Y034968D01*
X072457Y034922D01*
X072434Y034878D01*
X072407Y034835D01*
X072377Y034795D01*
X072345Y034757D01*
X072309Y034722D01*
X072270Y034690D01*
X072229Y034661D01*
X072186Y034635D01*
X072141Y034613D01*
X072095Y034595D01*
X072047Y034580D01*
X071998Y034569D01*
X071949Y034562D01*
X071899Y034559D01*
X071848Y034560D01*
X071799Y034565D01*
X071749Y034574D01*
X071701Y034587D01*
X071654Y034603D01*
X071608Y034624D01*
X071564Y034648D01*
X071522Y034675D01*
X071482Y034705D01*
X071445Y034739D01*
X071411Y034776D01*
X071379Y034815D01*
X071351Y034856D01*
X071326Y034900D01*
X071305Y034945D01*
X071288Y034992D01*
X071274Y035040D01*
X071264Y035089D01*
X071258Y035139D01*
X071256Y035189D01*
X076756Y035189D02*
X076758Y035239D01*
X076764Y035289D01*
X076774Y035338D01*
X076788Y035386D01*
X076805Y035433D01*
X076826Y035478D01*
X076851Y035522D01*
X076879Y035563D01*
X076911Y035602D01*
X076945Y035639D01*
X076982Y035673D01*
X077022Y035703D01*
X077064Y035730D01*
X077108Y035754D01*
X077154Y035775D01*
X077201Y035791D01*
X077249Y035804D01*
X077299Y035813D01*
X077348Y035818D01*
X077399Y035819D01*
X077449Y035816D01*
X077498Y035809D01*
X077547Y035798D01*
X077595Y035783D01*
X077641Y035765D01*
X077686Y035743D01*
X077729Y035717D01*
X077770Y035688D01*
X077809Y035656D01*
X077845Y035621D01*
X077877Y035583D01*
X077907Y035543D01*
X077934Y035500D01*
X077957Y035456D01*
X077976Y035410D01*
X077992Y035362D01*
X078004Y035313D01*
X078012Y035264D01*
X078016Y035214D01*
X078016Y035164D01*
X078012Y035114D01*
X078004Y035065D01*
X077992Y035016D01*
X077976Y034968D01*
X077957Y034922D01*
X077934Y034878D01*
X077907Y034835D01*
X077877Y034795D01*
X077845Y034757D01*
X077809Y034722D01*
X077770Y034690D01*
X077729Y034661D01*
X077686Y034635D01*
X077641Y034613D01*
X077595Y034595D01*
X077547Y034580D01*
X077498Y034569D01*
X077449Y034562D01*
X077399Y034559D01*
X077348Y034560D01*
X077299Y034565D01*
X077249Y034574D01*
X077201Y034587D01*
X077154Y034603D01*
X077108Y034624D01*
X077064Y034648D01*
X077022Y034675D01*
X076982Y034705D01*
X076945Y034739D01*
X076911Y034776D01*
X076879Y034815D01*
X076851Y034856D01*
X076826Y034900D01*
X076805Y034945D01*
X076788Y034992D01*
X076774Y035040D01*
X076764Y035089D01*
X076758Y035139D01*
X076756Y035189D01*
X076756Y031689D02*
X076758Y031739D01*
X076764Y031789D01*
X076774Y031838D01*
X076788Y031886D01*
X076805Y031933D01*
X076826Y031978D01*
X076851Y032022D01*
X076879Y032063D01*
X076911Y032102D01*
X076945Y032139D01*
X076982Y032173D01*
X077022Y032203D01*
X077064Y032230D01*
X077108Y032254D01*
X077154Y032275D01*
X077201Y032291D01*
X077249Y032304D01*
X077299Y032313D01*
X077348Y032318D01*
X077399Y032319D01*
X077449Y032316D01*
X077498Y032309D01*
X077547Y032298D01*
X077595Y032283D01*
X077641Y032265D01*
X077686Y032243D01*
X077729Y032217D01*
X077770Y032188D01*
X077809Y032156D01*
X077845Y032121D01*
X077877Y032083D01*
X077907Y032043D01*
X077934Y032000D01*
X077957Y031956D01*
X077976Y031910D01*
X077992Y031862D01*
X078004Y031813D01*
X078012Y031764D01*
X078016Y031714D01*
X078016Y031664D01*
X078012Y031614D01*
X078004Y031565D01*
X077992Y031516D01*
X077976Y031468D01*
X077957Y031422D01*
X077934Y031378D01*
X077907Y031335D01*
X077877Y031295D01*
X077845Y031257D01*
X077809Y031222D01*
X077770Y031190D01*
X077729Y031161D01*
X077686Y031135D01*
X077641Y031113D01*
X077595Y031095D01*
X077547Y031080D01*
X077498Y031069D01*
X077449Y031062D01*
X077399Y031059D01*
X077348Y031060D01*
X077299Y031065D01*
X077249Y031074D01*
X077201Y031087D01*
X077154Y031103D01*
X077108Y031124D01*
X077064Y031148D01*
X077022Y031175D01*
X076982Y031205D01*
X076945Y031239D01*
X076911Y031276D01*
X076879Y031315D01*
X076851Y031356D01*
X076826Y031400D01*
X076805Y031445D01*
X076788Y031492D01*
X076774Y031540D01*
X076764Y031589D01*
X076758Y031639D01*
X076756Y031689D01*
X077095Y045183D02*
X077097Y045231D01*
X077103Y045279D01*
X077113Y045326D01*
X077126Y045372D01*
X077144Y045417D01*
X077164Y045461D01*
X077189Y045503D01*
X077217Y045542D01*
X077247Y045579D01*
X077281Y045613D01*
X077318Y045645D01*
X077356Y045674D01*
X077397Y045699D01*
X077440Y045721D01*
X077485Y045739D01*
X077531Y045753D01*
X077578Y045764D01*
X077626Y045771D01*
X077674Y045774D01*
X077722Y045773D01*
X077770Y045768D01*
X077818Y045759D01*
X077864Y045747D01*
X077909Y045730D01*
X077953Y045710D01*
X077995Y045687D01*
X078035Y045660D01*
X078073Y045630D01*
X078108Y045597D01*
X078140Y045561D01*
X078170Y045523D01*
X078196Y045482D01*
X078218Y045439D01*
X078238Y045395D01*
X078253Y045350D01*
X078265Y045303D01*
X078273Y045255D01*
X078277Y045207D01*
X078277Y045159D01*
X078273Y045111D01*
X078265Y045063D01*
X078253Y045016D01*
X078238Y044971D01*
X078218Y044927D01*
X078196Y044884D01*
X078170Y044843D01*
X078140Y044805D01*
X078108Y044769D01*
X078073Y044736D01*
X078035Y044706D01*
X077995Y044679D01*
X077953Y044656D01*
X077909Y044636D01*
X077864Y044619D01*
X077818Y044607D01*
X077770Y044598D01*
X077722Y044593D01*
X077674Y044592D01*
X077626Y044595D01*
X077578Y044602D01*
X077531Y044613D01*
X077485Y044627D01*
X077440Y044645D01*
X077397Y044667D01*
X077356Y044692D01*
X077318Y044721D01*
X077281Y044753D01*
X077247Y044787D01*
X077217Y044824D01*
X077189Y044863D01*
X077164Y044905D01*
X077144Y044949D01*
X077126Y044994D01*
X077113Y045040D01*
X077103Y045087D01*
X077097Y045135D01*
X077095Y045183D01*
X077095Y049396D02*
X077097Y049444D01*
X077103Y049492D01*
X077113Y049539D01*
X077126Y049585D01*
X077144Y049630D01*
X077164Y049674D01*
X077189Y049716D01*
X077217Y049755D01*
X077247Y049792D01*
X077281Y049826D01*
X077318Y049858D01*
X077356Y049887D01*
X077397Y049912D01*
X077440Y049934D01*
X077485Y049952D01*
X077531Y049966D01*
X077578Y049977D01*
X077626Y049984D01*
X077674Y049987D01*
X077722Y049986D01*
X077770Y049981D01*
X077818Y049972D01*
X077864Y049960D01*
X077909Y049943D01*
X077953Y049923D01*
X077995Y049900D01*
X078035Y049873D01*
X078073Y049843D01*
X078108Y049810D01*
X078140Y049774D01*
X078170Y049736D01*
X078196Y049695D01*
X078218Y049652D01*
X078238Y049608D01*
X078253Y049563D01*
X078265Y049516D01*
X078273Y049468D01*
X078277Y049420D01*
X078277Y049372D01*
X078273Y049324D01*
X078265Y049276D01*
X078253Y049229D01*
X078238Y049184D01*
X078218Y049140D01*
X078196Y049097D01*
X078170Y049056D01*
X078140Y049018D01*
X078108Y048982D01*
X078073Y048949D01*
X078035Y048919D01*
X077995Y048892D01*
X077953Y048869D01*
X077909Y048849D01*
X077864Y048832D01*
X077818Y048820D01*
X077770Y048811D01*
X077722Y048806D01*
X077674Y048805D01*
X077626Y048808D01*
X077578Y048815D01*
X077531Y048826D01*
X077485Y048840D01*
X077440Y048858D01*
X077397Y048880D01*
X077356Y048905D01*
X077318Y048934D01*
X077281Y048966D01*
X077247Y049000D01*
X077217Y049037D01*
X077189Y049076D01*
X077164Y049118D01*
X077144Y049162D01*
X077126Y049207D01*
X077113Y049253D01*
X077103Y049300D01*
X077097Y049348D01*
X077095Y049396D01*
X071776Y053992D02*
X071778Y054041D01*
X071784Y054090D01*
X071794Y054138D01*
X071807Y054185D01*
X071825Y054231D01*
X071846Y054275D01*
X071870Y054318D01*
X071898Y054358D01*
X071929Y054397D01*
X071963Y054432D01*
X072000Y054465D01*
X072039Y054494D01*
X072081Y054520D01*
X072124Y054543D01*
X072170Y054562D01*
X072216Y054578D01*
X072264Y054590D01*
X072312Y054598D01*
X072361Y054602D01*
X072411Y054602D01*
X072460Y054598D01*
X072508Y054590D01*
X072556Y054578D01*
X072602Y054562D01*
X072648Y054543D01*
X072691Y054520D01*
X072733Y054494D01*
X072772Y054465D01*
X072809Y054432D01*
X072843Y054397D01*
X072874Y054358D01*
X072902Y054318D01*
X072926Y054275D01*
X072947Y054231D01*
X072965Y054185D01*
X072978Y054138D01*
X072988Y054090D01*
X072994Y054041D01*
X072996Y053992D01*
X072994Y053943D01*
X072988Y053894D01*
X072978Y053846D01*
X072965Y053799D01*
X072947Y053753D01*
X072926Y053709D01*
X072902Y053666D01*
X072874Y053626D01*
X072843Y053587D01*
X072809Y053552D01*
X072772Y053519D01*
X072733Y053490D01*
X072691Y053464D01*
X072648Y053441D01*
X072602Y053422D01*
X072556Y053406D01*
X072508Y053394D01*
X072460Y053386D01*
X072411Y053382D01*
X072361Y053382D01*
X072312Y053386D01*
X072264Y053394D01*
X072216Y053406D01*
X072170Y053422D01*
X072124Y053441D01*
X072081Y053464D01*
X072039Y053490D01*
X072000Y053519D01*
X071963Y053552D01*
X071929Y053587D01*
X071898Y053626D01*
X071870Y053666D01*
X071846Y053709D01*
X071825Y053753D01*
X071807Y053799D01*
X071794Y053846D01*
X071784Y053894D01*
X071778Y053943D01*
X071776Y053992D01*
X054776Y053992D02*
X054778Y054041D01*
X054784Y054090D01*
X054794Y054138D01*
X054807Y054185D01*
X054825Y054231D01*
X054846Y054275D01*
X054870Y054318D01*
X054898Y054358D01*
X054929Y054397D01*
X054963Y054432D01*
X055000Y054465D01*
X055039Y054494D01*
X055081Y054520D01*
X055124Y054543D01*
X055170Y054562D01*
X055216Y054578D01*
X055264Y054590D01*
X055312Y054598D01*
X055361Y054602D01*
X055411Y054602D01*
X055460Y054598D01*
X055508Y054590D01*
X055556Y054578D01*
X055602Y054562D01*
X055648Y054543D01*
X055691Y054520D01*
X055733Y054494D01*
X055772Y054465D01*
X055809Y054432D01*
X055843Y054397D01*
X055874Y054358D01*
X055902Y054318D01*
X055926Y054275D01*
X055947Y054231D01*
X055965Y054185D01*
X055978Y054138D01*
X055988Y054090D01*
X055994Y054041D01*
X055996Y053992D01*
X055994Y053943D01*
X055988Y053894D01*
X055978Y053846D01*
X055965Y053799D01*
X055947Y053753D01*
X055926Y053709D01*
X055902Y053666D01*
X055874Y053626D01*
X055843Y053587D01*
X055809Y053552D01*
X055772Y053519D01*
X055733Y053490D01*
X055691Y053464D01*
X055648Y053441D01*
X055602Y053422D01*
X055556Y053406D01*
X055508Y053394D01*
X055460Y053386D01*
X055411Y053382D01*
X055361Y053382D01*
X055312Y053386D01*
X055264Y053394D01*
X055216Y053406D01*
X055170Y053422D01*
X055124Y053441D01*
X055081Y053464D01*
X055039Y053490D01*
X055000Y053519D01*
X054963Y053552D01*
X054929Y053587D01*
X054898Y053626D01*
X054870Y053666D01*
X054846Y053709D01*
X054825Y053753D01*
X054807Y053799D01*
X054794Y053846D01*
X054784Y053894D01*
X054778Y053943D01*
X054776Y053992D01*
X031776Y053992D02*
X031778Y054041D01*
X031784Y054090D01*
X031794Y054138D01*
X031807Y054185D01*
X031825Y054231D01*
X031846Y054275D01*
X031870Y054318D01*
X031898Y054358D01*
X031929Y054397D01*
X031963Y054432D01*
X032000Y054465D01*
X032039Y054494D01*
X032081Y054520D01*
X032124Y054543D01*
X032170Y054562D01*
X032216Y054578D01*
X032264Y054590D01*
X032312Y054598D01*
X032361Y054602D01*
X032411Y054602D01*
X032460Y054598D01*
X032508Y054590D01*
X032556Y054578D01*
X032602Y054562D01*
X032648Y054543D01*
X032691Y054520D01*
X032733Y054494D01*
X032772Y054465D01*
X032809Y054432D01*
X032843Y054397D01*
X032874Y054358D01*
X032902Y054318D01*
X032926Y054275D01*
X032947Y054231D01*
X032965Y054185D01*
X032978Y054138D01*
X032988Y054090D01*
X032994Y054041D01*
X032996Y053992D01*
X032994Y053943D01*
X032988Y053894D01*
X032978Y053846D01*
X032965Y053799D01*
X032947Y053753D01*
X032926Y053709D01*
X032902Y053666D01*
X032874Y053626D01*
X032843Y053587D01*
X032809Y053552D01*
X032772Y053519D01*
X032733Y053490D01*
X032691Y053464D01*
X032648Y053441D01*
X032602Y053422D01*
X032556Y053406D01*
X032508Y053394D01*
X032460Y053386D01*
X032411Y053382D01*
X032361Y053382D01*
X032312Y053386D01*
X032264Y053394D01*
X032216Y053406D01*
X032170Y053422D01*
X032124Y053441D01*
X032081Y053464D01*
X032039Y053490D01*
X032000Y053519D01*
X031963Y053552D01*
X031929Y053587D01*
X031898Y053626D01*
X031870Y053666D01*
X031846Y053709D01*
X031825Y053753D01*
X031807Y053799D01*
X031794Y053846D01*
X031784Y053894D01*
X031778Y053943D01*
X031776Y053992D01*
X009776Y053992D02*
X009778Y054041D01*
X009784Y054090D01*
X009794Y054138D01*
X009807Y054185D01*
X009825Y054231D01*
X009846Y054275D01*
X009870Y054318D01*
X009898Y054358D01*
X009929Y054397D01*
X009963Y054432D01*
X010000Y054465D01*
X010039Y054494D01*
X010081Y054520D01*
X010124Y054543D01*
X010170Y054562D01*
X010216Y054578D01*
X010264Y054590D01*
X010312Y054598D01*
X010361Y054602D01*
X010411Y054602D01*
X010460Y054598D01*
X010508Y054590D01*
X010556Y054578D01*
X010602Y054562D01*
X010648Y054543D01*
X010691Y054520D01*
X010733Y054494D01*
X010772Y054465D01*
X010809Y054432D01*
X010843Y054397D01*
X010874Y054358D01*
X010902Y054318D01*
X010926Y054275D01*
X010947Y054231D01*
X010965Y054185D01*
X010978Y054138D01*
X010988Y054090D01*
X010994Y054041D01*
X010996Y053992D01*
X010994Y053943D01*
X010988Y053894D01*
X010978Y053846D01*
X010965Y053799D01*
X010947Y053753D01*
X010926Y053709D01*
X010902Y053666D01*
X010874Y053626D01*
X010843Y053587D01*
X010809Y053552D01*
X010772Y053519D01*
X010733Y053490D01*
X010691Y053464D01*
X010648Y053441D01*
X010602Y053422D01*
X010556Y053406D01*
X010508Y053394D01*
X010460Y053386D01*
X010411Y053382D01*
X010361Y053382D01*
X010312Y053386D01*
X010264Y053394D01*
X010216Y053406D01*
X010170Y053422D01*
X010124Y053441D01*
X010081Y053464D01*
X010039Y053490D01*
X010000Y053519D01*
X009963Y053552D01*
X009929Y053587D01*
X009898Y053626D01*
X009870Y053666D01*
X009846Y053709D01*
X009825Y053753D01*
X009807Y053799D01*
X009794Y053846D01*
X009784Y053894D01*
X009778Y053943D01*
X009776Y053992D01*
M02*
