G75*
G70*
%OFA0B0*%
%FSLAX24Y24*%
%IPPOS*%
%LPD*%
%AMOC8*
5,1,8,0,0,1.08239X$1,22.5*
%
%ADD10C,0.1300*%
%ADD11C,0.1340*%
%ADD12C,0.0671*%
%ADD13C,0.1261*%
%ADD14C,0.0682*%
%ADD15R,0.0682X0.0682*%
%ADD16R,0.0470X0.0200*%
%ADD17R,0.0474X0.0513*%
%ADD18R,0.0552X0.0552*%
%ADD19R,0.0592X0.0671*%
%ADD20R,0.0513X0.0474*%
%ADD21C,0.0848*%
%ADD22C,0.0789*%
%ADD23R,0.0848X0.0848*%
%ADD24C,0.0611*%
D10*
X010386Y002992D03*
X032386Y002992D03*
X055386Y002992D03*
X072386Y002992D03*
X072386Y053992D03*
X055386Y053992D03*
X032386Y053992D03*
X010386Y053992D03*
D11*
X071586Y019689D03*
X071586Y016189D03*
X077586Y016189D03*
X077586Y019689D03*
X077386Y031689D03*
X077386Y035189D03*
X071886Y035189D03*
X071886Y031689D03*
X069786Y005189D03*
X069786Y002389D03*
X077286Y002389D03*
X077286Y005189D03*
D12*
X076991Y008189D02*
X077582Y008189D01*
X077582Y009189D02*
X076991Y009189D01*
X076891Y024489D02*
X077482Y024489D01*
X077482Y025489D02*
X076891Y025489D01*
X077032Y040489D02*
X076441Y040489D01*
X076441Y041489D02*
X077032Y041489D01*
X072982Y047389D02*
X072391Y047389D01*
X072391Y048389D02*
X072982Y048389D01*
X072982Y049389D02*
X072391Y049389D01*
X072391Y050689D02*
X072982Y050689D01*
X072982Y051689D02*
X072391Y051689D01*
D13*
X077686Y049396D03*
X077686Y045183D03*
D14*
X075986Y045518D03*
X075986Y046699D03*
X075986Y047880D03*
X075986Y049061D03*
X074805Y049061D03*
X074805Y050242D03*
X074805Y047880D03*
X074805Y046699D03*
X074805Y045518D03*
X074805Y044337D03*
X075986Y044337D03*
D15*
X075986Y050242D03*
D16*
X075535Y040079D03*
X075535Y039823D03*
X075535Y039567D03*
X075535Y039311D03*
X075535Y039055D03*
X075535Y038800D03*
X075535Y038544D03*
X075535Y038288D03*
X073238Y038288D03*
X073238Y038544D03*
X073238Y038800D03*
X073238Y039055D03*
X073238Y039311D03*
X073238Y039567D03*
X073238Y039823D03*
X073238Y040079D03*
X073238Y024079D03*
X073238Y023823D03*
X073238Y023567D03*
X073238Y023311D03*
X073238Y023055D03*
X073238Y022800D03*
X073238Y022544D03*
X073238Y022288D03*
X075535Y022288D03*
X075535Y022544D03*
X075535Y022800D03*
X075535Y023055D03*
X075535Y023311D03*
X075535Y023567D03*
X075535Y023823D03*
X075535Y024079D03*
X075535Y008079D03*
X075535Y007823D03*
X075535Y007567D03*
X075535Y007311D03*
X075535Y007055D03*
X075535Y006800D03*
X075535Y006544D03*
X075535Y006288D03*
X073238Y006288D03*
X073238Y006544D03*
X073238Y006800D03*
X073238Y007055D03*
X073238Y007311D03*
X073238Y007567D03*
X073238Y007823D03*
X073238Y008079D03*
D17*
X076152Y010189D03*
X076152Y010789D03*
X076821Y010789D03*
X076821Y010189D03*
X066121Y015689D03*
X065452Y015689D03*
X058621Y015589D03*
X057952Y015589D03*
X051021Y015689D03*
X050352Y015689D03*
X043621Y015589D03*
X042952Y015589D03*
X036221Y015589D03*
X035552Y015589D03*
X028721Y015589D03*
X028052Y015589D03*
X021121Y015589D03*
X020452Y015589D03*
X013721Y015589D03*
X013052Y015589D03*
X013052Y031689D03*
X013721Y031689D03*
X020552Y031689D03*
X021221Y031689D03*
X028052Y031689D03*
X028721Y031689D03*
X035452Y031689D03*
X036121Y031689D03*
X043052Y031689D03*
X043721Y031689D03*
X050452Y031689D03*
X051121Y031689D03*
X057952Y031589D03*
X058621Y031589D03*
X065552Y031589D03*
X066221Y031589D03*
X076052Y026989D03*
X076721Y026989D03*
X076721Y026389D03*
X076052Y026389D03*
X075821Y042389D03*
X076402Y042389D03*
X077071Y042389D03*
X075152Y042389D03*
X067721Y047189D03*
X067052Y047189D03*
X058521Y047889D03*
X057852Y047889D03*
X051221Y047889D03*
X050552Y047889D03*
X043621Y047889D03*
X042952Y047889D03*
X036121Y047889D03*
X035452Y047889D03*
X028721Y047889D03*
X028052Y047889D03*
X021321Y047889D03*
X020652Y047889D03*
X013821Y047889D03*
X013152Y047889D03*
D18*
X012973Y047189D03*
X013800Y047189D03*
X020573Y047189D03*
X021400Y047189D03*
X027973Y047189D03*
X028800Y047189D03*
X035373Y047189D03*
X036200Y047189D03*
X042873Y047189D03*
X043700Y047189D03*
X050473Y047189D03*
X051300Y047189D03*
X057773Y047189D03*
X058600Y047189D03*
X065473Y047189D03*
X066300Y047189D03*
X076386Y052776D03*
X077136Y052776D03*
X077136Y053603D03*
X076386Y053603D03*
X066241Y030989D03*
X065414Y030989D03*
X058679Y030989D03*
X057852Y030989D03*
X051216Y031089D03*
X050390Y031089D03*
X043754Y031089D03*
X042927Y031089D03*
X036192Y031089D03*
X035365Y031089D03*
X028830Y031089D03*
X028003Y031089D03*
X021268Y031089D03*
X020441Y031089D03*
X013805Y031089D03*
X012979Y031089D03*
X012977Y014989D03*
X013804Y014989D03*
X020339Y014989D03*
X021166Y014989D03*
X027901Y014989D03*
X028728Y014989D03*
X035464Y014989D03*
X036290Y014989D03*
X042926Y014989D03*
X043753Y014989D03*
X050288Y015089D03*
X051115Y015089D03*
X057850Y014989D03*
X058677Y014989D03*
X065312Y015089D03*
X066139Y015089D03*
D19*
X075712Y021089D03*
X076460Y021089D03*
X076460Y037089D03*
X075712Y037089D03*
X075760Y004989D03*
X075012Y004989D03*
D20*
X075052Y005689D03*
X075721Y005689D03*
X075752Y021789D03*
X076421Y021789D03*
X076421Y037789D03*
X075752Y037789D03*
X074886Y052855D03*
X074886Y053524D03*
X078636Y053524D03*
X078636Y052855D03*
D21*
X007142Y007077D03*
X007142Y008455D03*
X007142Y009833D03*
X007142Y011211D03*
X007142Y012589D03*
X007142Y013967D03*
X007142Y015345D03*
X007142Y016723D03*
X013786Y012589D03*
X016149Y013416D03*
X018511Y012589D03*
X021286Y012589D03*
X023649Y013416D03*
X026011Y012589D03*
X028786Y012589D03*
X031149Y013416D03*
X033511Y012589D03*
X036286Y012589D03*
X038649Y013416D03*
X041011Y012589D03*
X043786Y012589D03*
X046149Y013416D03*
X048511Y012589D03*
X051286Y012589D03*
X053649Y013416D03*
X056011Y012589D03*
X058786Y012589D03*
X061149Y013416D03*
X063511Y012589D03*
X066286Y012589D03*
X068649Y013416D03*
X071011Y012589D03*
X071011Y007786D03*
X066286Y007786D03*
X063511Y007786D03*
X058786Y007786D03*
X056011Y007786D03*
X051286Y007786D03*
X048511Y007786D03*
X043786Y007786D03*
X041011Y007786D03*
X036286Y007786D03*
X033511Y007786D03*
X028786Y007786D03*
X026011Y007786D03*
X021286Y007786D03*
X018511Y007786D03*
X013786Y007786D03*
X007142Y023077D03*
X007142Y024455D03*
X007142Y025833D03*
X007142Y027211D03*
X007142Y028589D03*
X007142Y029967D03*
X007142Y031345D03*
X007142Y032723D03*
X013786Y028589D03*
X016149Y029416D03*
X018511Y028589D03*
X021286Y028589D03*
X023649Y029416D03*
X026011Y028589D03*
X028786Y028589D03*
X031149Y029416D03*
X033511Y028589D03*
X036286Y028589D03*
X038649Y029416D03*
X041011Y028589D03*
X043786Y028589D03*
X046149Y029416D03*
X048511Y028589D03*
X051286Y028589D03*
X053649Y029416D03*
X056011Y028589D03*
X058786Y028589D03*
X061149Y029416D03*
X063511Y028589D03*
X066286Y028589D03*
X068649Y029416D03*
X071011Y028589D03*
X071011Y023786D03*
X066286Y023786D03*
X063511Y023786D03*
X058786Y023786D03*
X056011Y023786D03*
X051286Y023786D03*
X048511Y023786D03*
X043786Y023786D03*
X041011Y023786D03*
X036286Y023786D03*
X033511Y023786D03*
X028786Y023786D03*
X026011Y023786D03*
X021286Y023786D03*
X018511Y023786D03*
X013786Y023786D03*
X007142Y039077D03*
X007142Y040455D03*
X007142Y041833D03*
X007142Y043211D03*
X007142Y044589D03*
X007142Y045967D03*
X007142Y047345D03*
X007142Y048723D03*
X013786Y044589D03*
X016149Y045416D03*
X018511Y044589D03*
X021286Y044589D03*
X023649Y045416D03*
X026011Y044589D03*
X028786Y044589D03*
X031149Y045416D03*
X033511Y044589D03*
X036286Y044589D03*
X038649Y045416D03*
X041011Y044589D03*
X043786Y044589D03*
X046149Y045416D03*
X048511Y044589D03*
X051286Y044589D03*
X053649Y045416D03*
X056011Y044589D03*
X058786Y044589D03*
X061149Y045416D03*
X063511Y044589D03*
X066286Y044589D03*
X068649Y045416D03*
X071011Y044589D03*
X071011Y039786D03*
X066286Y039786D03*
X063511Y039786D03*
X058786Y039786D03*
X056011Y039786D03*
X051286Y039786D03*
X048511Y039786D03*
X043786Y039786D03*
X041011Y039786D03*
X036286Y039786D03*
X033511Y039786D03*
X028786Y039786D03*
X026011Y039786D03*
X021286Y039786D03*
X018511Y039786D03*
X013786Y039786D03*
D22*
X013786Y036589D03*
X015786Y036589D03*
X021286Y036589D03*
X023286Y036589D03*
X028786Y036589D03*
X030786Y036589D03*
X036286Y036589D03*
X038286Y036589D03*
X043786Y036589D03*
X045786Y036589D03*
X051286Y036589D03*
X053286Y036589D03*
X058786Y036589D03*
X060786Y036589D03*
X066286Y036589D03*
X068286Y036589D03*
X068286Y020589D03*
X066286Y020589D03*
X060786Y020589D03*
X058786Y020589D03*
X053286Y020589D03*
X051286Y020589D03*
X045786Y020589D03*
X043786Y020589D03*
X038286Y020589D03*
X036286Y020589D03*
X030786Y020589D03*
X028786Y020589D03*
X023286Y020589D03*
X021286Y020589D03*
X015786Y020589D03*
X013786Y020589D03*
X013786Y004589D03*
X015786Y004589D03*
X021286Y004589D03*
X023286Y004589D03*
X028786Y004589D03*
X030786Y004589D03*
X036286Y004589D03*
X038286Y004589D03*
X043786Y004589D03*
X045786Y004589D03*
X051286Y004589D03*
X053286Y004589D03*
X058786Y004589D03*
X060786Y004589D03*
X066286Y004589D03*
X068286Y004589D03*
D23*
X007142Y018101D03*
X007142Y034101D03*
X007142Y050101D03*
D24*
X074986Y036889D03*
X074986Y021189D03*
M02*
